# xmcd
#
# Track frame offsets:
# 150
# 23461
# 47274
# 81748
# 109499
# 142564
# 178218
# 216787
# 257148
# 297085
#
# Disc length: 4676 seconds
#
#
# Revision: 0
# Processed by: cddbd v1.5.2PL0 Copyright (c) Steve Scherf et al.
# Submitted via: FreeRIP 2.945 
#
DISCID=8912420a
DTITLE=Herriot-J1977 - Wise-Wonderful05
DYEAR=1977
DGENRE=Jungle
TTITLE0=WW 0501
TTITLE1=WW 0502
TTITLE2=WW 0503
TTITLE3=WW 0504
TTITLE4=WW 0505
TTITLE5=WW 0506
TTITLE6=WW 0507
TTITLE7=WW 0508
TTITLE8=WW 0509
TTITLE9=WW 0510
EXTD=All Things Wise and Wonderful 12 CDs\nby James Herriot - read by Christopher Timothy\nRennasance Audio - Jungle Country
EXTT0=
EXTT1=
EXTT2=
EXTT3=
EXTT4=
EXTT5=
EXTT6=
EXTT7=
EXTT8=
EXTT9=
PLAYORDER=
